<svg width="240" height="60" viewBox="0 0 240 60" fill="none" xmlns="http://www.w3.org/2000/svg">
<g clip-path="url(#clip0_410_38)">
<rect width="240" height="60" rx="8" fill="#171817"/>
<g filter="url(#filter0_f_410_38)">
<path d="M211.655 23.4981C211.521 23.3549 211.335 23.2727 211.137 23.2727H190.961C190.766 23.2727 190.577 23.3549 190.443 23.4981L187.17 27.0034C187.048 27.1343 186.981 27.3079 186.981 27.4846V32.4882C186.981 32.6679 187.048 32.8385 187.17 32.9694L190.443 36.4747C190.577 36.6179 190.763 36.7001 190.961 36.7001H211.137C211.332 36.7001 211.521 36.6179 211.655 36.4747L214.929 32.9694C215.051 32.8385 215.118 32.6649 215.118 32.4882V31.6203C215.118 31.2305 214.801 30.9137 214.411 30.9137H193.477C193.282 30.9137 193.093 30.8315 192.959 30.6884C192.837 30.5574 192.77 30.3838 192.77 30.2072V29.7656C192.77 29.5859 192.837 29.4154 192.959 29.2844C193.093 29.1413 193.279 29.0591 193.477 29.0591H214.411C214.801 29.0591 215.118 28.7423 215.118 28.3525V27.4846C215.118 27.3049 215.051 27.1343 214.929 27.0034L211.655 23.4981Z" fill="#16E3C1"/>
<path d="M130.159 30.9412H128.38V27.512C128.38 27.3323 128.313 27.1617 128.191 27.0308L124.917 23.5224C124.783 23.3793 124.598 23.2971 124.4 23.2971H104.224C104.029 23.2971 103.84 23.3793 103.706 23.5224L100.432 27.0277C100.31 27.1587 100.243 27.3323 100.243 27.5089V32.5157C100.243 32.6953 100.31 32.8659 100.432 32.9968L103.706 36.5022C103.84 36.6453 104.026 36.7275 104.224 36.7275H134.961C135.156 36.7245 135.345 36.6422 135.479 36.4991C135.479 36.4991 130.552 30.9381 130.162 30.9381L130.159 30.9412ZM122.594 30.2316C122.594 30.6214 122.277 30.9381 121.887 30.9381H106.736C106.541 30.9381 106.352 30.8559 106.218 30.7127C106.097 30.5818 106.03 30.4082 106.03 30.2316V29.793C106.03 29.6133 106.097 29.4428 106.221 29.3118C106.355 29.1687 106.541 29.0865 106.739 29.0865H121.875C122.064 29.0865 122.244 29.1596 122.374 29.2936L122.39 29.3088C122.524 29.4428 122.597 29.6225 122.597 29.8082V30.2316H122.594Z" fill="#16E3C1"/>
<path d="M158.122 26.7232L155.11 23.4981C154.976 23.3549 154.79 23.2727 154.592 23.2727H146.138C145.748 23.2727 145.432 23.5894 145.432 23.9793V30.2072C145.432 30.4021 145.349 30.5909 145.206 30.7249C145.075 30.8467 144.902 30.9168 144.725 30.9168H144.283C144.104 30.9168 143.93 30.8498 143.802 30.7249C143.659 30.5909 143.577 30.4052 143.577 30.2072V23.9793C143.577 23.5894 143.26 23.2727 142.87 23.2727H134.416C134.221 23.2727 134.032 23.3549 133.898 23.4981L130.887 26.7232C130.634 26.9942 130.634 27.4176 130.887 27.6886L139.088 36.4778C139.222 36.6209 139.408 36.7032 139.606 36.7032H149.403C149.598 36.7032 149.787 36.6209 149.921 36.4778L158.122 27.6886C158.375 27.4176 158.375 26.9942 158.122 26.7232Z" fill="#16E3C1"/>
<path d="M176.55 23.4981C176.416 23.3549 176.23 23.2727 176.032 23.2727H166.235C166.04 23.2727 165.851 23.3549 165.717 23.4981L157.516 32.2872C157.263 32.5583 157.263 32.9816 157.516 33.2527L160.528 36.4778C160.662 36.6209 160.848 36.7032 161.046 36.7032H169.5C169.89 36.7032 170.206 36.3864 170.206 35.9966V29.7687C170.206 29.5737 170.289 29.3849 170.432 29.2509C170.563 29.1291 170.736 29.0591 170.913 29.0591H171.354C171.534 29.0591 171.708 29.1261 171.836 29.2509C171.979 29.3849 172.061 29.5707 172.061 29.7687V35.9966C172.061 36.3864 172.378 36.7032 172.768 36.7032H181.222C181.417 36.7032 181.605 36.6209 181.739 36.4778L184.751 33.2527C185.004 32.9816 185.004 32.5583 184.751 32.2872L176.55 23.4981Z" fill="#16E3C1"/>
<path d="M224.02 33.0821L222.826 31.0325C222.777 30.9503 222.686 30.8985 222.588 30.8985H218.41C218.312 30.8985 218.221 30.9503 218.172 31.0325L216.978 33.0821C216.951 33.1308 216.942 33.1857 216.948 33.2374C216.948 33.2374 216.954 33.2587 216.954 33.2679C216.963 33.3197 216.981 33.3714 217.024 33.411L220.304 36.6118C220.359 36.6636 220.429 36.691 220.499 36.6879C220.569 36.6879 220.639 36.6636 220.694 36.6118L223.974 33.411C224.013 33.3714 224.032 33.3227 224.041 33.2709C224.041 33.2587 224.047 33.2496 224.047 33.2374C224.05 33.1857 224.047 33.1308 224.016 33.0821H224.02Z" fill="#16E3C1"/>
</g>
<path d="M211.655 23.4981C211.521 23.3549 211.335 23.2727 211.137 23.2727H190.961C190.766 23.2727 190.577 23.3549 190.443 23.4981L187.17 27.0034C187.048 27.1343 186.981 27.3079 186.981 27.4846V32.4882C186.981 32.6679 187.048 32.8385 187.17 32.9694L190.443 36.4747C190.577 36.6179 190.763 36.7001 190.961 36.7001H211.137C211.332 36.7001 211.521 36.6179 211.655 36.4747L214.929 32.9694C215.051 32.8385 215.118 32.6649 215.118 32.4882V31.6203C215.118 31.2305 214.801 30.9137 214.411 30.9137H193.477C193.282 30.9137 193.093 30.8315 192.959 30.6884C192.837 30.5574 192.77 30.3838 192.77 30.2072V29.7656C192.77 29.5859 192.837 29.4154 192.959 29.2844C193.093 29.1413 193.279 29.0591 193.477 29.0591H214.411C214.801 29.0591 215.118 28.7423 215.118 28.3525V27.4846C215.118 27.3049 215.051 27.1343 214.929 27.0034L211.655 23.4981Z" fill="#16E3C1"/>
<path d="M130.159 30.9412H128.38V27.512C128.38 27.3323 128.313 27.1617 128.191 27.0308L124.917 23.5224C124.783 23.3793 124.598 23.2971 124.4 23.2971H104.224C104.029 23.2971 103.84 23.3793 103.706 23.5224L100.432 27.0277C100.31 27.1587 100.243 27.3323 100.243 27.5089V32.5157C100.243 32.6953 100.31 32.8659 100.432 32.9968L103.706 36.5022C103.84 36.6453 104.026 36.7275 104.224 36.7275H134.961C135.156 36.7245 135.345 36.6422 135.479 36.4991C135.479 36.4991 130.552 30.9381 130.162 30.9381L130.159 30.9412ZM122.594 30.2316C122.594 30.6214 122.277 30.9381 121.887 30.9381H106.736C106.541 30.9381 106.352 30.8559 106.218 30.7127C106.097 30.5818 106.03 30.4082 106.03 30.2316V29.793C106.03 29.6133 106.097 29.4428 106.221 29.3118C106.355 29.1687 106.541 29.0865 106.739 29.0865H121.875C122.064 29.0865 122.244 29.1596 122.374 29.2936L122.39 29.3088C122.524 29.4428 122.597 29.6225 122.597 29.8082V30.2316H122.594Z" fill="#16E3C1"/>
<path d="M158.122 26.7232L155.11 23.4981C154.976 23.3549 154.79 23.2727 154.592 23.2727H146.138C145.748 23.2727 145.432 23.5894 145.432 23.9793V30.2072C145.432 30.4021 145.349 30.5909 145.206 30.7249C145.075 30.8467 144.902 30.9168 144.725 30.9168H144.283C144.104 30.9168 143.93 30.8498 143.802 30.7249C143.659 30.5909 143.577 30.4052 143.577 30.2072V23.9793C143.577 23.5894 143.26 23.2727 142.87 23.2727H134.416C134.221 23.2727 134.032 23.3549 133.898 23.4981L130.887 26.7232C130.634 26.9942 130.634 27.4176 130.887 27.6886L139.088 36.4778C139.222 36.6209 139.408 36.7032 139.606 36.7032H149.403C149.598 36.7032 149.787 36.6209 149.921 36.4778L158.122 27.6886C158.375 27.4176 158.375 26.9942 158.122 26.7232Z" fill="#16E3C1"/>
<path d="M176.55 23.4981C176.416 23.3549 176.23 23.2727 176.032 23.2727H166.235C166.04 23.2727 165.851 23.3549 165.717 23.4981L157.516 32.2872C157.263 32.5583 157.263 32.9816 157.516 33.2527L160.528 36.4778C160.662 36.6209 160.848 36.7032 161.046 36.7032H169.5C169.89 36.7032 170.206 36.3864 170.206 35.9966V29.7687C170.206 29.5737 170.289 29.3849 170.432 29.2509C170.563 29.1291 170.736 29.0591 170.913 29.0591H171.354C171.534 29.0591 171.708 29.1261 171.836 29.2509C171.979 29.3849 172.061 29.5707 172.061 29.7687V35.9966C172.061 36.3864 172.378 36.7032 172.768 36.7032H181.222C181.417 36.7032 181.605 36.6209 181.739 36.4778L184.751 33.2527C185.004 32.9816 185.004 32.5583 184.751 32.2872L176.55 23.4981Z" fill="#16E3C1"/>
<path d="M224.02 33.0821L222.826 31.0325C222.777 30.9503 222.686 30.8985 222.588 30.8985H218.41C218.312 30.8985 218.221 30.9503 218.172 31.0325L216.978 33.0821C216.951 33.1308 216.942 33.1857 216.948 33.2374C216.948 33.2374 216.954 33.2587 216.954 33.2679C216.963 33.3197 216.981 33.3714 217.024 33.411L220.304 36.6118C220.359 36.6636 220.429 36.691 220.499 36.6879C220.569 36.6879 220.639 36.6636 220.694 36.6118L223.974 33.411C224.013 33.3714 224.032 33.3227 224.041 33.2709C224.041 33.2587 224.047 33.2496 224.047 33.2374C224.05 33.1857 224.047 33.1308 224.016 33.0821H224.02Z" fill="#16E3C1"/>
<path d="M17.3805 34.6436V25.6564H20.0636C20.5926 25.6564 21.0494 25.7093 21.4341 25.815C21.8284 25.9208 22.1505 26.0747 22.4006 26.2767C22.6602 26.4786 22.8526 26.7191 22.9776 26.998C23.1026 27.2672 23.1651 27.5654 23.1651 27.8923C23.1651 28.152 23.1123 28.4165 23.0065 28.6858C22.9103 28.9454 22.766 29.181 22.5737 29.3926C22.391 29.5946 22.1553 29.7484 21.8668 29.8542C22.1169 29.9504 22.3429 30.0754 22.5448 30.2293C22.7468 30.3832 22.9199 30.5611 23.0642 30.763C23.2084 30.9554 23.319 31.1622 23.396 31.3834C23.4825 31.6045 23.5258 31.8354 23.5258 32.0758C23.5258 32.4605 23.4537 32.8115 23.3094 33.1289C23.1651 33.4462 22.9488 33.7203 22.6602 33.9511C22.3717 34.1723 22.0111 34.3454 21.5783 34.4704C21.1456 34.5859 20.6358 34.6436 20.0492 34.6436H17.3805ZM18.7942 33.4462H20.2079C20.583 33.4462 20.9051 33.3981 21.1744 33.302C21.4437 33.1962 21.6505 33.0375 21.7947 32.8259C21.9486 32.6143 22.0255 32.3451 22.0255 32.0181C22.0255 31.7103 21.9582 31.4411 21.8236 31.2102C21.6985 30.9698 21.487 30.7823 21.1888 30.6476C20.8907 30.513 20.4868 30.4457 19.9771 30.4457H18.7942V33.4462ZM18.7942 29.2916H19.9194C20.381 29.2916 20.7416 29.2387 21.0013 29.1329C21.2706 29.0272 21.4581 28.8781 21.5639 28.6858C21.6793 28.4934 21.737 28.277 21.737 28.0366C21.737 27.8539 21.7033 27.6904 21.636 27.5461C21.5783 27.4019 21.4822 27.2768 21.3475 27.1711C21.2129 27.0557 21.0398 26.9691 20.8282 26.9114C20.6166 26.8537 20.3666 26.8248 20.0781 26.8248H18.7942V29.2916ZM27.1034 34.8022C26.8341 34.8022 26.5792 34.7638 26.3388 34.6868C26.108 34.6195 25.8964 34.5089 25.7041 34.355C25.5117 34.2012 25.3434 34.0088 25.1992 33.778C25.0645 33.5472 24.9587 33.2683 24.8818 32.9413C24.8145 32.6143 24.7808 32.2441 24.7808 31.8305L24.7952 27.9645H26.209V31.8305C26.209 32.1671 26.2378 32.4557 26.2955 32.6961C26.3628 32.9269 26.4494 33.1144 26.5552 33.2587C26.6706 33.4029 26.8004 33.5087 26.9447 33.5761C27.0889 33.6338 27.2428 33.6626 27.4063 33.6626C27.6179 33.6626 27.815 33.6241 27.9977 33.5472C28.1805 33.4703 28.3392 33.3549 28.4738 33.201C28.618 33.0375 28.7238 32.8355 28.7912 32.5951C28.8681 32.3451 28.9066 32.0566 28.9066 31.7296V27.9645H30.3491V33.5905C30.3491 33.7828 30.3539 33.9655 30.3636 34.1387C30.3828 34.3021 30.4261 34.4704 30.4934 34.6436H29.1518C29.1037 34.5378 29.0701 34.4368 29.0508 34.3406C29.0316 34.2348 29.0172 34.1338 29.0075 34.0377C29.0075 33.9319 29.0075 33.8261 29.0075 33.7203C28.9114 33.903 28.7912 34.0617 28.6469 34.1964C28.5123 34.331 28.3584 34.4464 28.1853 34.5426C28.0218 34.6291 27.8487 34.6916 27.666 34.7301C27.4928 34.7782 27.3053 34.8022 27.1034 34.8022ZM32.513 34.6436V33.5039H34.1719V29.1041H32.5851V27.9645H35.6145V33.5039H37.1292V34.6436H32.513ZM34.8067 26.7671C34.547 26.7671 34.3258 26.6806 34.1431 26.5075C33.97 26.3248 33.8834 26.1132 33.8834 25.8727C33.8834 25.6131 33.97 25.3967 34.1431 25.2236C34.3162 25.0505 34.5374 24.9639 34.8067 24.9639C35.0567 24.9639 35.2731 25.0553 35.4558 25.238C35.6482 25.4207 35.7443 25.6323 35.7443 25.8727C35.7443 26.1132 35.6482 26.3248 35.4558 26.5075C35.2731 26.6806 35.0567 26.7671 34.8067 26.7671ZM39.4084 34.6436V33.5039H41.3126V26.1324H39.495V24.9928H42.7696V33.5039H44.6594V34.6436H39.4084ZM49.9536 34.7734C49.5593 34.7734 49.2179 34.7109 48.9294 34.5859C48.6505 34.4512 48.4245 34.2396 48.2514 33.9511C48.0879 33.6626 47.9725 33.2875 47.9052 32.8259C47.8378 32.3643 47.8138 31.8017 47.833 31.1381L48.0206 26.3488L49.492 26.1613L49.6362 26.1468L49.6507 26.2767C49.6026 26.344 49.5593 26.4113 49.5208 26.4786C49.492 26.5459 49.4679 26.6614 49.4487 26.8248L49.3045 28.6858L49.3622 28.8444L49.2612 31.1381C49.2323 31.7921 49.2516 32.3018 49.3189 32.6672C49.3862 33.0231 49.5016 33.2731 49.6651 33.4174C49.8286 33.552 50.0257 33.6193 50.2565 33.6193C50.5643 33.6193 50.8384 33.5568 51.0788 33.4318C51.3289 33.3068 51.5741 33.1529 51.8145 32.9702L52.1319 34.0377C51.8049 34.2781 51.4635 34.4608 51.1077 34.5859C50.7518 34.7109 50.3671 34.7734 49.9536 34.7734ZM46.5347 27.9645H51.5693L51.5549 29.1185H46.5347V27.9645ZM61.4941 34.658L60.2391 27.9645H61.4653L62.3308 32.7971L63.3551 28.6713H64.134L65.3458 32.7682C65.442 32.0566 65.5237 31.4651 65.591 30.9939C65.6584 30.513 65.7064 30.1139 65.7353 29.7965C65.7641 29.4695 65.7834 29.1955 65.793 28.9743C65.8026 28.7435 65.8074 28.5175 65.8074 28.2963V27.9645H67.0625C66.9951 28.6858 66.9086 29.4263 66.8028 30.186C66.697 30.9458 66.5768 31.7055 66.4421 32.4653C66.3075 33.2154 66.1681 33.9463 66.0238 34.658H64.7543L63.7301 30.8063L62.7636 34.658H61.4941ZM68.5771 34.6436V33.5039H70.2361V29.1041H68.6493V27.9645H71.6787V33.5039H73.1934V34.6436H68.5771ZM70.8708 26.7671C70.6112 26.7671 70.39 26.6806 70.2072 26.5075C70.0341 26.3248 69.9476 26.1132 69.9476 25.8727C69.9476 25.6131 70.0341 25.3967 70.2072 25.2236C70.3804 25.0505 70.6015 24.9639 70.8708 24.9639C71.1209 24.9639 71.3373 25.0553 71.52 25.238C71.7123 25.4207 71.8085 25.6323 71.8085 25.8727C71.8085 26.1132 71.7123 26.3248 71.52 26.5075C71.3373 26.6806 71.1209 26.7671 70.8708 26.7671ZM78.8049 34.7734C78.4106 34.7734 78.0692 34.7109 77.7807 34.5859C77.5018 34.4512 77.2758 34.2396 77.1027 33.9511C76.9392 33.6626 76.8238 33.2875 76.7565 32.8259C76.6892 32.3643 76.6651 31.8017 76.6844 31.1381L76.8719 26.3488L78.3433 26.1613L78.4876 26.1468L78.502 26.2767C78.4539 26.344 78.4106 26.4113 78.3722 26.4786C78.3433 26.5459 78.3193 26.6614 78.3 26.8248L78.1558 28.6858L78.2135 28.8444L78.1125 31.1381C78.0837 31.7921 78.1029 32.3018 78.1702 32.6672C78.2375 33.0231 78.3529 33.2731 78.5164 33.4174C78.6799 33.552 78.8771 33.6193 79.1079 33.6193C79.4156 33.6193 79.6897 33.5568 79.9301 33.4318C80.1802 33.3068 80.4254 33.1529 80.6659 32.9702L80.9832 34.0377C80.6562 34.2781 80.3148 34.4608 79.959 34.5859C79.6032 34.7109 79.2185 34.7734 78.8049 34.7734ZM75.3861 27.9645H80.4206L80.4062 29.1185H75.3861V27.9645ZM82.5845 24.9928H83.9982H84.1424V25.1226C84.0847 25.1803 84.0463 25.2428 84.027 25.3101C84.0174 25.3775 84.0126 25.4929 84.0126 25.6564V28.9454C84.1761 28.705 84.3684 28.503 84.5896 28.3395C84.8204 28.1664 85.0561 28.0366 85.2965 27.95C85.5465 27.8539 85.7966 27.8058 86.0466 27.8058C86.4698 27.8058 86.8352 27.902 87.143 28.0943C87.4603 28.2866 87.7056 28.5896 87.8787 29.0031C88.0518 29.407 88.1383 29.9456 88.1383 30.6188V34.6436H86.7246V30.6332C86.7246 30.2197 86.6814 29.8927 86.5948 29.6523C86.5082 29.4022 86.388 29.2243 86.2342 29.1185C86.0803 29.0031 85.8976 28.9454 85.686 28.9454C85.5129 28.9454 85.3446 28.9743 85.1811 29.032C85.0272 29.0897 84.8781 29.1714 84.7339 29.2772C84.5896 29.3734 84.4646 29.4984 84.3588 29.6523C84.253 29.8061 84.1665 29.9793 84.0992 30.1716C84.0415 30.3639 84.0126 30.5755 84.0126 30.8063V34.6436H82.5845V24.9928Z" fill="white"/>
</g>
<rect x="0.25" y="0.25" width="239.5" height="59.5" rx="7.75" stroke="#16E3C1" stroke-width="0.5"/>
<defs>
<filter id="filter0_f_410_38" x="23.4457" y="-53.5247" width="277.4" height="167.05" filterUnits="userSpaceOnUse" color-interpolation-filters="sRGB">
<feFlood flood-opacity="0" result="BackgroundImageFix"/>
<feBlend mode="normal" in="SourceGraphic" in2="BackgroundImageFix" result="shape"/>
<feGaussianBlur stdDeviation="38.3987" result="effect1_foregroundBlur_410_38"/>
</filter>
<clipPath id="clip0_410_38">
<rect width="240" height="60" rx="8" fill="white"/>
</clipPath>
</defs>
</svg>
