<?xml version="1.0" encoding="UTF-8"?>
<svg xmlns="http://www.w3.org/2000/svg" width="56" height="48" viewBox="0 0 56 48" fill="none">
  <mask id="mask0_275_13078" style="mask-type:alpha" maskUnits="userSpaceOnUse" x="0" y="0" width="56" height="48">
    <rect width="55.7864" height="48" fill="#D9D9D9"></rect>
  </mask>
  <g mask="url(#mask0_275_13078)">
    <path d="M46.0067 25.3175H43.5317V20.5455C43.5317 20.2954 43.4385 20.0581 43.2689 19.8758L38.713 14.9936C38.5265 14.7944 38.268 14.6799 37.9925 14.6799H9.91516C9.64392 14.6799 9.38116 14.7944 9.19469 14.9936L4.63874 19.8716C4.46921 20.0538 4.37598 20.2954 4.37598 20.5412V27.5086C4.37598 27.7587 4.46921 27.996 4.63874 28.1783L9.19469 33.0563C9.38116 33.2555 9.63969 33.3699 9.91516 33.3699H52.6902C52.9615 33.3657 53.2242 33.2513 53.4107 33.0521C53.4107 33.0521 46.5535 25.3133 46.011 25.3133L46.0067 25.3175ZM35.4793 24.3301C35.4793 24.8725 35.0386 25.3133 34.4961 25.3133H13.4116C13.1403 25.3133 12.8776 25.1989 12.6911 24.9997C12.5216 24.8174 12.4284 24.5759 12.4284 24.3301V23.7198C12.4284 23.4697 12.5216 23.2324 12.6953 23.0502C12.8818 22.851 13.1403 22.7365 13.4158 22.7365H34.4791C34.7419 22.7365 34.9919 22.8383 35.1742 23.0247L35.1954 23.0459C35.3819 23.2324 35.4836 23.4824 35.4836 23.741V24.3301H35.4793Z" fill="#16E3C1"></path>
  </g>
</svg>
